<svg xmlns="http://www.w3.org/2000/svg" width="259" height="357" fill="none"><g stroke="#fff" stroke-width="2" filter="url(#filter0_d)"><path d="M131 5c-21 0-35.2 6.3-41 10.4m-1.5 1.1l1.5-1.1m0 0v21.1l-73.5 57H8v3h1.5V110h1v4.5c2.2.3 6.5 2.8 6.5 10V311"/><path d="M131 5c21 0 35.2 6.3 41 10.4m1.5 1.1l-1.5-1.1m0 0v21.1l73.5 57h8.5v3h-1.5V110h-1v4.5c-2.2.3-6.5 2.8-6.5 10V266"/><path d="M131 43.5c-16.8 0-27.7 9-31 13.5v76h31"/><path d="M32 132a58 58 0 0 1 57-57v57H32z"/><path d="M131 43.5h3c16.8 0 27.7 9 31 13.5v76h-34"/><path d="M233 132a58 58 0 0 0-57-57v57h57z"/><path d="M132.5 157H116v2c-8 0-14.5 6.5-14.5 14.6H100V253h6.5m66.5-6h-59l-67 57-1.1 8.5m-2.4 40V348m2.4-35.5L43.5 330v18m2.4-35.5H10L5.5 330v22.5m2-4.5h36"/><path d="M9 343.5h34.5m-33-5h33M12 334h31.5m-25-21.5v19m25 0h-8m-22.5 0h22.5m0-19v19"/><path d="M49 332.5l70-61.5h25.5m28.5-24v2.5m0 0V271h-28.5m28.5-21.5h-28.5m-98 59l69.5-59h28.5m0 0V271"/><path d="M119 249.5V271l-12.5-13m-5 28L89 272.5M83 303l-13-14.5m-7.5 32l-12.5-15"/><path d="M132.5 157H149v2c8 0 14.5 6.5 14.5 14.6h1.5V246"/><path d="M59.5 157H43v2c-8 0-14.5 6.5-14.5 14.6H27V253h35.5"/><path d="M59.5 157H76v2c8 0 14.5 6.5 14.5 14.6H92V253H56.5"/><path d="M41 250h36v3H41z"/><path d="M45 202a14 14 0 1 1 28 0v48H45v-48z"/><path d="M77 201v-1a16 16 0 0 0-16-16m-20 17v-1a16 16 0 0 1 16-16"/><path d="M41 205v44.5M77 205v44.5"/><path d="M55 202a4 4 0 0 1 8 0v48h-8v-48z"/><path d="M59 198v-10m-14.5 30.5H73"/><path d="M45 234h28"/><path d="M73 201h19v4H73z"/><path d="M27 201h18v4H27z"/><path d="M57 183h4v5h-4z"/><path d="M205.5 157H189v2c-8 0-14.5 6.5-14.5 14.6H173V253h35.5"/><path d="M205.5 157H222v2c8 0 14.5 6.5 14.5 14.6h1.5V253h-35.5"/><path d="M187 250h36v3h-36z"/><path d="M191 202a14 14 0 1 1 28 0v48h-28v-48z"/><path d="M223 201v-1a16 16 0 0 0-16-16m-20 17v-1a16 16 0 0 1 16-16"/><path d="M187 205v44.5m36-44.5v44.5"/><path d="M201 202a4 4 0 0 1 8 0v48h-8v-48z"/><path d="M205 198v-10m-14.5 30.5H219"/><path d="M191 234h28"/><path d="M219 201h19v4h-19z"/><path d="M173 201h18v4h-18z"/><path d="M203 183h4v5h-4z"/><circle cx="131" cy="87" r="8"/><circle cx="131" cy="87" r="15"/><path d="M131 72v7m-15 8h7m16 0h7m-15 8v7"/><circle cx="131" cy="87" r="21"/><path d="M122 201a10 10 0 1 1 20 0v46h-20v-46z"/><path d="M114 202a18 18 0 0 1 36 0v45h-36v-45z"/><path d="M157 247v-46a25 25 0 0 0-50 0v52"/><path d="M162 247v-46a30 30 0 1 0-60 0v52"/><path d="M102 201h5v4h-5z"/><path d="M157 201h5v4h-5z"/><path d="M130 171h5v5h-5z"/><path d="M132 191v-15m-25 25h50m-50 21.5h15m20 0h15M107 236h15m20 0h15"/></g><defs><filter id="filter0_d" width="258.5" height="356.5" x=".5" y="0" color-interpolation-filters="sRGB" filterUnits="userSpaceOnUse"><feFlood flood-opacity="0" result="BackgroundImageFix"/><feColorMatrix in="SourceAlpha" values="0 0 0 0 0 0 0 0 0 0 0 0 0 0 0 0 0 0 127 0"/><feOffset/><feGaussianBlur stdDeviation="2"/><feColorMatrix values="0 0 0 0 0 0 0 0 0 0 0 0 0 0 0 0 0 0 0.8 0"/><feBlend in2="BackgroundImageFix" result="effect1_dropShadow"/><feBlend in="SourceGraphic" in2="effect1_dropShadow" result="shape"/></filter></defs></svg>