<svg xmlns="http://www.w3.org/2000/svg" width="24" height="24" fill="none"><path fill="#fff" d="M.94 5.63c.52 0 .94-.42.94-.94V1.87h2.8a.94.94 0 1 0 0-1.87H.95A.94.94 0 0 0 0 .94v3.75c0 .52.42.93.94.93z"/><path fill="#fff" d="M4.69 22.13H1.87V19.3a.94.94 0 1 0-1.87 0v3.75c0 .52.42.94.94.94h3.75a.94.94 0 1 0 0-1.88z"/><path fill="#fff" d="M23.06 0h-3.75a.94.94 0 1 0 0 1.88h2.82v2.8a.94.94 0 1 0 1.87 0V.95a.94.94 0 0 0-.94-.94z"/><path fill="#fff" d="M23.06 18.38a.94.94 0 0 0-.93.93v2.82H19.3a.94.94 0 1 0 0 1.87h3.75c.52 0 .94-.42.94-.94v-3.75a.94.94 0 0 0-.94-.93z"/><path fill="#fff" d="M23.8 11.22C20.19 6.76 16.28 4.5 12.17 4.5c-1.62 0-3.27.36-4.9 1.07A17.16 17.16 0 0 0 3.5 7.9a19.64 19.64 0 0 0-3.33 3.37.89.89 0 0 0 .02 1.07c3.62 4.47 7.54 6.72 11.65 6.72 1.62 0 3.27-.36 4.9-1.07a17.16 17.16 0 0 0 3.76-2.32 19.64 19.64 0 0 0 3.33-3.36.89.89 0 0 0-.02-1.08zm-4.44 3.1c-1.7 1.35-4.39 2.97-7.52 2.97-3.39 0-6.69-1.86-9.82-5.52.5-.58 1.4-1.56 2.61-2.53 1.7-1.36 4.4-2.97 7.53-2.97 3.38 0 6.68 1.85 9.82 5.52-.5.58-1.4 1.56-2.62 2.53z"/><path fill="#fff" d="M15.25 10.9c-.49 0-.88.4-.88.88a2.37 2.37 0 1 1-2.38-2.37c.49 0 .89-.4.89-.88 0-.49-.4-.89-.89-.89a4.14 4.14 0 1 0 4.14 4.14c0-.49-.4-.88-.88-.88z"/></svg>